<svg version="1.1" xmlns="http://www.w3.org/2000/svg" viewBox="0 0 1824.132699882919 1055.4518224459034" width="1824.132699882919" height="1055.4518224459034" filter="invert(93%) hue-rotate(180deg)">
  <!-- svg-source:excalidraw -->
  
  <defs>
    <style class="style-fonts">
      @font-face {
        font-family: "Virgil";
        src: url("https://excalidraw.com/Virgil.woff2");
      }
      @font-face {
        font-family: "Cascadia";
        src: url("https://excalidraw.com/Cascadia.woff2");
      }
      @font-face {
        font-family: "Assistant";
        src: url("https://excalidraw.com/Assistant-Regular.woff2");
      }
    </style>
    
  </defs>
  <rect x="0" y="0" width="1824.132699882919" height="1055.4518224459034" fill="#ffffff"></rect><g stroke-opacity="0.6" fill-opacity="0.6" stroke-linecap="round" transform="translate(653.8172091109 334.1111111111112) rotate(0 182 40.5)"><path d="M20.25 0 C146.6 0.31, 274.42 3.68, 343.75 0 C360.38 0.7, 365.76 9.52, 364 20.25 C362.75 33.18, 363.91 45.23, 364 60.75 C366.15 73.53, 356.9 83.58, 343.75 81 C275.35 77.63, 200.2 75.84, 20.25 81 C9.21 78.31, 1.9 74.99, 0 60.75 C0.88 47.07, -2.15 30.03, 0 20.25 C-2.62 8.28, 6.66 2.2, 20.25 0" stroke="none" stroke-width="0" fill="#ffc9c9"></path><path d="M20.25 0 C131.21 0.02, 242.73 0.02, 343.75 0 M20.25 0 C143.3 1.89, 265.7 1.92, 343.75 0 M343.75 0 C355.91 -0.47, 364.57 7.86, 364 20.25 M343.75 0 C357.66 -0.39, 365.73 6.27, 364 20.25 M364 20.25 C364.47 31.26, 363.71 37.81, 364 60.75 M364 20.25 C364.66 33.19, 364.84 46.07, 364 60.75 M364 60.75 C363.01 73.89, 357.79 80.73, 343.75 81 M364 60.75 C363.82 74.62, 356.3 80.5, 343.75 81 M343.75 81 C259.25 81.61, 172.51 82.03, 20.25 81 M343.75 81 C242.46 81.62, 141.06 82.15, 20.25 81 M20.25 81 C7.52 80.61, 0.24 76, 0 60.75 M20.25 81 C5.47 82.42, 1.8 73.31, 0 60.75 M0 60.75 C-0.16 47.45, -0.09 33.65, 0 20.25 M0 60.75 C-0.48 48.17, -0.62 35.41, 0 20.25 M0 20.25 C1.39 6.49, 8.12 1.47, 20.25 0 M0 20.25 C-0.7 8.83, 7.53 0.01, 20.25 0" stroke="#1e1e1e" stroke-width="2" fill="none"></path></g><g stroke-opacity="0.6" fill-opacity="0.6" transform="translate(719.5172060591422 358.5111111111112) rotate(0 116.30000305175781 16.099999999999994)"><text x="116.30000305175781" y="25.760546874999996" font-family="Helvetica, Segoe UI Emoji" font-size="28px" fill="#1e1e1e" text-anchor="middle" style="white-space: pre;" direction="ltr" dominant-baseline="alphabetic">Hospital Exchange</text></g><g stroke-opacity="0.6" fill-opacity="0.6" stroke-linecap="round" transform="translate(320.81720911089997 542.2222222222223) rotate(0 79 24)"><path d="M12 0 C47.56 -1.41, 84.47 1.07, 146 0 C151.49 -0.77, 156.79 0.54, 158 12 C159.93 18.23, 155.45 30.61, 158 36 C160.25 40.47, 151.73 45.53, 146 48 C99.58 49.7, 50.39 46.51, 12 48 C2.05 51.28, 1.98 43.93, 0 36 C-1.78 34.06, -1.69 25.92, 0 12 C1.14 0.42, 5.17 2.69, 12 0" stroke="none" stroke-width="0" fill="#ffec99"></path><path d="M12 0 C49.16 -2.35, 88.92 -0.75, 146 0 M12 0 C49.18 2.23, 84.03 1.07, 146 0 M146 0 C154.68 -0.95, 156.53 5.81, 158 12 M146 0 C152.15 -1.13, 155.88 6.3, 158 12 M158 12 C156.87 16.22, 158.97 23.5, 158 36 M158 12 C158.17 19.24, 157.67 26.06, 158 36 M158 36 C157.93 42.45, 153.97 48.79, 146 48 M158 36 C158.73 43.16, 152.72 46.95, 146 48 M146 48 C106.87 46.88, 69.84 46.32, 12 48 M146 48 C105.41 49.2, 64.2 48.92, 12 48 M12 48 C5.71 48.29, -0.41 43.97, 0 36 M12 48 C2.24 49.53, 1.8 43.21, 0 36 M0 36 C1.85 29.89, 1.8 21.75, 0 12 M0 36 C-0.65 28.47, -0.35 21.77, 0 12 M0 12 C1.61 2.31, 5.8 -0.55, 12 0 M0 12 C-2.07 3.61, 5.73 1.58, 12 0" stroke="#1e1e1e" stroke-width="2" fill="none"></path></g><g stroke-opacity="0.6" fill-opacity="0.6" transform="translate(334.44220911089997 550.1222222222223) rotate(0 65.375 16.099999999999994)"><text x="65.375" y="25.760546874999996" font-family="Helvetica, Segoe UI Emoji" font-size="28px" fill="#1e1e1e" text-anchor="middle" style="white-space: pre;" direction="ltr" dominant-baseline="alphabetic">doc queue</text></g><g stroke-opacity="0.6" fill-opacity="0.6" stroke-linecap="round" transform="translate(763.0394313331219 162.22222222222234) rotate(0 87.33333333333337 35.27777777777777)"><path d="M17.64 0 C54.52 -3.81, 92.01 -2.73, 157.03 0 C165.68 -2.9, 175.53 4.19, 174.67 17.64 C171.16 23.15, 171.42 36.39, 174.67 52.92 C172.99 67.64, 170.75 68.37, 157.03 70.56 C121.14 72.02, 82.51 68.82, 17.64 70.56 C6.45 67.89, -2.59 63.28, 0 52.92 C2.57 44.07, -2.1 26.36, 0 17.64 C0.09 5.76, 7.33 -1.32, 17.64 0" stroke="none" stroke-width="0" fill="#ffec99"></path><path d="M17.64 0 C65.87 -2.7, 115.04 -2.21, 157.03 0 M17.64 0 C53.09 -0.07, 89.61 1.15, 157.03 0 M157.03 0 C167.93 1.16, 175.34 4.18, 174.67 17.64 M157.03 0 C170.62 -0.43, 172.64 6.98, 174.67 17.64 M174.67 17.64 C173 27.23, 175.65 36.22, 174.67 52.92 M174.67 17.64 C174.31 26.19, 173.57 35.85, 174.67 52.92 M174.67 52.92 C173.12 65.99, 170.69 71.2, 157.03 70.56 M174.67 52.92 C172.65 63.05, 166.59 71.33, 157.03 70.56 M157.03 70.56 C118.08 72.41, 77.22 70.73, 17.64 70.56 M157.03 70.56 C103.94 70.16, 49.51 69.84, 17.64 70.56 M17.64 70.56 C4.61 69.68, 0.96 63.06, 0 52.92 M17.64 70.56 C6.37 68.84, -0.95 65.32, 0 52.92 M0 52.92 C-1 40.95, 0.19 29.75, 0 17.64 M0 52.92 C1.13 43.5, 1.17 32.73, 0 17.64 M0 17.64 C1.4 4.79, 7.66 -0.45, 17.64 0 M0 17.64 C1.89 7.09, 7.81 -0.2, 17.64 0" stroke="#1e1e1e" stroke-width="2" fill="none"></path></g><g stroke-opacity="0.6" fill-opacity="0.6" transform="translate(769.4477616146976 181.40000000000012) rotate(0 80.92500305175781 16.099999999999998)"><text x="80.92500305175781" y="25.760546874999996" font-family="Helvetica, Segoe UI Emoji" font-size="28px" fill="#1e1e1e" text-anchor="middle" style="white-space: pre;" direction="ltr" dominant-baseline="alphabetic">admin queue</text></g><g stroke-opacity="0.6" fill-opacity="0.6" stroke-linecap="round" transform="translate(325.81720911089997 733.1111111111112) rotate(0 79 24)"><path d="M12 0 C42.27 3.27, 77.06 0.07, 146 0 C154.18 -0.2, 160.01 3.35, 158 12 C161.29 18.67, 158.93 23.81, 158 36 C159.6 40.58, 151.97 48.53, 146 48 C107.35 45.36, 71.37 45.21, 12 48 C6.28 45.12, 2.4 42.73, 0 36 C1.27 30.99, -0.28 19.64, 0 12 C-0.28 4.37, 2.8 2.99, 12 0" stroke="none" stroke-width="0" fill="#ffec99"></path><path d="M12 0 C57.33 -1.68, 100.3 0.01, 146 0 M12 0 C42.72 -0.79, 74.53 -1.14, 146 0 M146 0 C155.52 0.3, 159.49 5.74, 158 12 M146 0 C156 -1.33, 158.87 3.84, 158 12 M158 12 C159.94 17.43, 156.78 25.65, 158 36 M158 12 C158.67 18.06, 156.93 22.79, 158 36 M158 36 C156.76 44.29, 153.16 48.93, 146 48 M158 36 C158.56 42.03, 153.93 49.63, 146 48 M146 48 C110.61 48.87, 79.98 49.66, 12 48 M146 48 C101.59 48.16, 58.39 48.29, 12 48 M12 48 C5.35 49.08, -0.67 43.7, 0 36 M12 48 C5.97 49.28, -2.05 42.15, 0 36 M0 36 C1.62 32.51, -1.11 25.06, 0 12 M0 36 C0.46 27.22, -0.96 16.05, 0 12 M0 12 C0.1 3.63, 5.51 -0.39, 12 0 M0 12 C-0.52 2.32, 4.31 -1.49, 12 0" stroke="#1e1e1e" stroke-width="2" fill="none"></path></g><g stroke-opacity="0.6" fill-opacity="0.6" transform="translate(339.44220911089997 741.0111111111112) rotate(0 65.375 16.099999999999994)"><text x="65.375" y="25.760546874999996" font-family="Helvetica, Segoe UI Emoji" font-size="28px" fill="#1e1e1e" text-anchor="middle" style="white-space: pre;" direction="ltr" dominant-baseline="alphabetic">doc queue</text></g><g stroke-opacity="0.6" fill-opacity="0.6" stroke-linecap="round" transform="translate(1431.8172091109 813.1111111111112) rotate(0 96 32.5)"><path d="M16.25 0 C61.43 -1.82, 103.22 -0.33, 175.75 0 C183.72 -0.34, 194.67 3.44, 192 16.25 C191.23 24.69, 193.27 34.25, 192 48.75 C191.18 58.75, 185.14 65.56, 175.75 65 C139.76 66.13, 106.92 64.07, 16.25 65 C5.32 63.75, 1.55 56.31, 0 48.75 C-2.38 38.21, 1.63 29.54, 0 16.25 C-2.31 2.36, 5.8 -0.01, 16.25 0" stroke="none" stroke-width="0" fill="#ffec99"></path><path d="M16.25 0 C60.04 0.63, 103.02 -0.66, 175.75 0 M16.25 0 C55.67 -0.32, 92.72 -0.66, 175.75 0 M175.75 0 C186.5 -1.84, 193.08 6.63, 192 16.25 M175.75 0 C187.23 -1.51, 191.4 6.59, 192 16.25 M192 16.25 C193.26 28.94, 193.45 41.63, 192 48.75 M192 16.25 C192.45 23.42, 191.95 30.75, 192 48.75 M192 48.75 C190.61 59.6, 186.97 63.14, 175.75 65 M192 48.75 C194.02 58.87, 184.85 62.78, 175.75 65 M175.75 65 C124.27 63.29, 71.83 66.23, 16.25 65 M175.75 65 C133.31 63.41, 92.95 63.92, 16.25 65 M16.25 65 C6.3 64.51, 1.88 57.69, 0 48.75 M16.25 65 C5.3 66.43, 1.31 59.97, 0 48.75 M0 48.75 C0.75 39.71, -0.02 33.15, 0 16.25 M0 48.75 C0.17 42.13, 0.22 35.42, 0 16.25 M0 16.25 C-0.23 4.79, 5.17 -0.97, 16.25 0 M0 16.25 C-2.05 5.9, 7.33 -0.91, 16.25 0" stroke="#1e1e1e" stroke-width="2" fill="none"></path></g><g stroke-opacity="0.6" fill-opacity="0.6" transform="translate(1448.667207585021 829.5111111111112) rotate(0 79.1500015258789 16.100000000000023)"><text x="79.1500015258789" y="25.760546874999996" font-family="Helvetica, Segoe UI Emoji" font-size="28px" fill="#1e1e1e" text-anchor="middle" style="white-space: pre;" direction="ltr" dominant-baseline="alphabetic">elbow queue</text></g><g stroke-opacity="0.6" fill-opacity="0.6" stroke-linecap="round" transform="translate(1428.8172091109 574.1111111111112) rotate(0 96 32.5)"><path d="M16.25 0 C77.32 -3.71, 130.59 -0.26, 175.75 0 C185.51 -2.3, 191.95 7.19, 192 16.25 C195.57 25.93, 194.98 37.6, 192 48.75 C195.05 62.02, 185.58 61.82, 175.75 65 C132.2 63.97, 94.27 63.3, 16.25 65 C8.54 66.06, 0.87 58.44, 0 48.75 C-2.24 39.79, 0.07 32.16, 0 16.25 C-0.85 6.75, 4.84 -3.08, 16.25 0" stroke="none" stroke-width="0" fill="#ffec99"></path><path d="M16.25 0 C51.73 0.05, 86.92 0.28, 175.75 0 M16.25 0 C74.72 2.17, 131.27 1.79, 175.75 0 M175.75 0 C187.09 1.18, 190.33 3.89, 192 16.25 M175.75 0 C187.49 -0.82, 194.08 5.43, 192 16.25 M192 16.25 C193.47 27.84, 191.91 39.17, 192 48.75 M192 16.25 C192.83 27.5, 192.44 39.24, 192 48.75 M192 48.75 C190.51 60.83, 185.37 65.57, 175.75 65 M192 48.75 C191.12 59.71, 186.51 65.73, 175.75 65 M175.75 65 C113.72 67.75, 54.76 67.14, 16.25 65 M175.75 65 C142.88 64.09, 112.64 63.22, 16.25 65 M16.25 65 C3.81 66.24, 1.15 58.94, 0 48.75 M16.25 65 C3.43 65.65, -0.27 58.72, 0 48.75 M0 48.75 C-1.37 37.67, -1.27 24.14, 0 16.25 M0 48.75 C-0.06 41.45, 0.28 34.14, 0 16.25 M0 16.25 C-1.66 4.44, 5.67 0.32, 16.25 0 M0 16.25 C1.46 6.45, 4.47 -0.14, 16.25 0" stroke="#1e1e1e" stroke-width="2" fill="none"></path></g><g stroke-opacity="0.6" fill-opacity="0.6" transform="translate(1463.3338755232535 590.5111111111112) rotate(0 61.483333587646484 16.099999999999994)"><text x="61.483333587646484" y="25.760546874999996" font-family="Helvetica, Segoe UI Emoji" font-size="28px" fill="#1e1e1e" text-anchor="middle" style="white-space: pre;" direction="ltr" dominant-baseline="alphabetic">hip queue</text></g><g stroke-opacity="0.6" fill-opacity="0.6" stroke-linecap="round" transform="translate(1431.8172091109 691.1111111111112) rotate(0 96 32.5)"><path d="M16.25 0 C48.15 -2.71, 81.73 -2.79, 175.75 0 C186.43 -2.37, 192.85 2.54, 192 16.25 C191.85 26.14, 190.4 43.4, 192 48.75 C191.62 62.78, 186.78 65.32, 175.75 65 C135.97 65.74, 95.83 64.67, 16.25 65 C3.99 65, -2.33 57.26, 0 48.75 C0.9 41.28, 1.5 30.61, 0 16.25 C-3.09 4.04, 2.75 -1.42, 16.25 0" stroke="none" stroke-width="0" fill="#ffec99"></path><path d="M16.25 0 C62.48 -0.96, 103.66 0.59, 175.75 0 M16.25 0 C61.08 -1.06, 106 -1.91, 175.75 0 M175.75 0 C188.44 -1.53, 192.05 4.73, 192 16.25 M175.75 0 C184.58 -0.08, 189.95 5.68, 192 16.25 M192 16.25 C192.1 27.04, 190.75 40.76, 192 48.75 M192 16.25 C191.13 22.25, 192.34 30.02, 192 48.75 M192 48.75 C193.16 58.98, 186.59 65.38, 175.75 65 M192 48.75 C190.67 59.38, 186.21 67.19, 175.75 65 M175.75 65 C131.29 62.74, 87.95 64.02, 16.25 65 M175.75 65 C122.39 65.55, 70.38 64.9, 16.25 65 M16.25 65 C6.41 65.96, -1.84 61.57, 0 48.75 M16.25 65 C6.93 66.17, 0.61 59.19, 0 48.75 M0 48.75 C1.01 43.35, -0.66 35.82, 0 16.25 M0 48.75 C-0.92 38.79, -0.36 29.86, 0 16.25 M0 16.25 C-0.75 5.66, 3.6 1.77, 16.25 0 M0 16.25 C-1.11 6.24, 7.44 -0.75, 16.25 0" stroke="#1e1e1e" stroke-width="2" fill="none"></path></g><g stroke-opacity="0.6" fill-opacity="0.6" transform="translate(1454.5922106367789 707.5111111111112) rotate(0 73.2249984741211 16.099999999999994)"><text x="73.2249984741211" y="25.760546874999996" font-family="Helvetica, Segoe UI Emoji" font-size="28px" fill="#1e1e1e" text-anchor="middle" style="white-space: pre;" direction="ltr" dominant-baseline="alphabetic">knee queue</text></g><g stroke-opacity="0.6" fill-opacity="0.6" stroke-linecap="round" transform="translate(319.81720911089997 611.1111111111112) rotate(0 79 24)"><path d="M12 0 C44.19 -0.71, 73.45 5.06, 146 0 C155.68 1.63, 157 6.7, 158 12 C156.02 18.4, 155.87 23.56, 158 36 C160.95 43.64, 151.31 47.25, 146 48 C108.92 45.18, 68.61 45.62, 12 48 C0.76 50.35, -1.02 46.05, 0 36 C3.92 30.94, -2.37 22.53, 0 12 C-2.41 0.5, 6.27 3.38, 12 0" stroke="none" stroke-width="0" fill="#ffec99"></path><path d="M12 0 C38.14 0.35, 67.06 -2.11, 146 0 M12 0 C57.74 -0.1, 104.63 -0.3, 146 0 M146 0 C152.22 0.34, 159.46 3.48, 158 12 M146 0 C153.74 1.35, 157.71 2.27, 158 12 M158 12 C158.32 18.43, 157.64 29.06, 158 36 M158 12 C158.64 18.4, 157.18 23.28, 158 36 M158 36 C159.35 42.02, 152.72 49.78, 146 48 M158 36 C155.89 41.92, 154.82 48.99, 146 48 M146 48 C93.69 48.41, 43 49.3, 12 48 M146 48 C95.05 47.63, 45.74 48, 12 48 M12 48 C4.85 49.69, 1.96 44.8, 0 36 M12 48 C2.88 47.33, -1.44 43.4, 0 36 M0 36 C-0.21 27.48, 1.06 16.33, 0 12 M0 36 C-1.04 29.18, -0.67 20.71, 0 12 M0 12 C-0.2 3.96, 3.45 1.14, 12 0 M0 12 C1.07 5.59, 6.01 0.85, 12 0" stroke="#1e1e1e" stroke-width="2" fill="none"></path></g><g stroke-opacity="0.6" fill-opacity="0.6" transform="translate(333.58387933795075 619.0111111111112) rotate(0 65.23332977294922 16.099999999999994)"><text x="65.23332977294922" y="25.760546874999996" font-family="Helvetica, Segoe UI Emoji" font-size="28px" fill="#1e1e1e" text-anchor="middle" style="white-space: pre;" direction="ltr" dominant-baseline="alphabetic">info queue</text></g><g stroke-opacity="0.6" fill-opacity="0.6" stroke-linecap="round" transform="translate(1185.7060979997887 594.4444444444445) rotate(0 79 24)"><path d="M12 0 C55.24 1.25, 99.57 0.16, 146 0 C156.67 -1.98, 157.52 7.02, 158 12 C158.63 19.15, 157.02 26.75, 158 36 C156.55 44.56, 151.13 44.86, 146 48 C114.52 50.45, 80.16 48.56, 12 48 C5.55 44.72, -0.09 46.01, 0 36 C2.2 30.2, -2.07 21.11, 0 12 C0.38 3.99, 7.45 2.92, 12 0" stroke="none" stroke-width="0" fill="#ffec99"></path><path d="M12 0 C56.92 -0.86, 102.34 -2.26, 146 0 M12 0 C54.02 -0.34, 97.69 -0.92, 146 0 M146 0 C155.08 1.21, 158.56 2.68, 158 12 M146 0 C153.4 1.17, 159.9 3.52, 158 12 M158 12 C159.68 19.56, 156.54 24.39, 158 36 M158 12 C158.4 21.64, 157.48 30.8, 158 36 M158 36 C158.39 42.14, 155.75 47.38, 146 48 M158 36 C156.27 41.78, 154.56 49.19, 146 48 M146 48 C104.97 48.02, 64.15 45.17, 12 48 M146 48 C113.27 46.6, 79.08 46.66, 12 48 M12 48 C5.88 46.11, -0.11 45.25, 0 36 M12 48 C5.31 48.38, -0.69 44.94, 0 36 M0 36 C0 32.76, -1.9 25.7, 0 12 M0 36 C0.19 29.55, -0.16 22.09, 0 12 M0 12 C-0.25 3.03, 2.22 0.42, 12 0 M0 12 C1.91 3.09, 3.51 0.78, 12 0" stroke="#1e1e1e" stroke-width="2" fill="none"></path></g><g stroke-opacity="0.6" fill-opacity="0.6" transform="translate(1199.4727682268394 602.3444444444444) rotate(0 65.23332977294922 16.099999999999994)"><text x="65.23332977294922" y="25.760546874999996" font-family="Helvetica, Segoe UI Emoji" font-size="28px" fill="#1e1e1e" text-anchor="middle" style="white-space: pre;" direction="ltr" dominant-baseline="alphabetic">info queue</text></g><g stroke-opacity="0.6" fill-opacity="0.6" stroke-linecap="round" transform="translate(325.81720911089997 799.1111111111112) rotate(0 79 24)"><path d="M12 0 C51.12 0.3, 94.07 0.07, 146 0 C156.68 1.4, 157.81 2.59, 158 12 C155.9 22.75, 160.07 28.15, 158 36 C156.43 45.45, 151.29 47.36, 146 48 C103.98 46.76, 54.59 43.59, 12 48 C5.7 47.89, 0.41 44.61, 0 36 C1.58 26.7, -0.24 16.92, 0 12 C-3.24 1.61, 3.47 1.86, 12 0" stroke="none" stroke-width="0" fill="#ffec99"></path><path d="M12 0 C63.36 -1.51, 112.42 1.19, 146 0 M12 0 C47.84 -1.33, 86.06 -0.6, 146 0 M146 0 C152.38 1.03, 158.85 5.97, 158 12 M146 0 C152.67 -1.32, 155.72 3.8, 158 12 M158 12 C159.49 22.61, 159.48 31.99, 158 36 M158 12 C158.98 19.14, 158.75 25.57, 158 36 M158 36 C158.13 45.89, 152.98 47.32, 146 48 M158 36 C156.74 44.64, 153.87 49.05, 146 48 M146 48 C99.65 48.07, 49.51 47.44, 12 48 M146 48 C96.02 46.06, 47.63 46.68, 12 48 M12 48 C5.72 47.71, -0.75 45.86, 0 36 M12 48 C1.8 46.62, -1.9 44.31, 0 36 M0 36 C0.24 30.43, -1.17 25, 0 12 M0 36 C-0.59 27.22, -0.05 17.32, 0 12 M0 12 C-0.48 4.11, 5.33 -0.85, 12 0 M0 12 C1.5 4.23, 3.46 0.65, 12 0" stroke="#1e1e1e" stroke-width="2" fill="none"></path></g><g stroke-opacity="0.6" fill-opacity="0.6" transform="translate(339.58387933795075 807.0111111111112) rotate(0 65.23332977294922 16.100000000000023)"><text x="65.23332977294922" y="25.760546874999996" font-family="Helvetica, Segoe UI Emoji" font-size="28px" fill="#1e1e1e" text-anchor="middle" style="white-space: pre;" direction="ltr" dominant-baseline="alphabetic">info queue</text></g><g stroke-opacity="0.6" fill-opacity="0.6" stroke-linecap="round" transform="translate(1191.8172091109 801.1111111111112) rotate(0 79 24)"><path d="M12 0 C46.55 -0.84, 89.5 -2.48, 146 0 C153.52 3.02, 158.89 2.74, 158 12 C157.27 17.78, 156.65 25.79, 158 36 C155.13 40.86, 152.03 47.13, 146 48 C95.64 47.18, 47.01 45.15, 12 48 C3.91 50.01, -1.92 41.95, 0 36 C-2.55 26.33, 0.15 22.75, 0 12 C3.45 6.92, 4.6 -1.62, 12 0" stroke="none" stroke-width="0" fill="#ffec99"></path><path d="M12 0 C59.66 -1.4, 110.03 1.52, 146 0 M12 0 C52.18 -0.46, 92.98 1.06, 146 0 M146 0 C154.56 -1.32, 157.48 5.02, 158 12 M146 0 C155.9 -0.48, 157.86 5.53, 158 12 M158 12 C156.57 17.79, 160.01 28.47, 158 36 M158 12 C157.36 19.33, 158.25 25.7, 158 36 M158 36 C159.75 43.38, 152.49 46.07, 146 48 M158 36 C158.56 45.19, 154.06 48.28, 146 48 M146 48 C116.78 47.14, 88.08 47.66, 12 48 M146 48 C117.19 47.34, 88.44 46.64, 12 48 M12 48 C3.89 49.25, 1.14 44.33, 0 36 M12 48 C3.31 48.94, -1.93 45.01, 0 36 M0 36 C-1.8 29.2, -0.35 22.6, 0 12 M0 36 C-0.17 27.95, -0.18 20.04, 0 12 M0 12 C-1.78 4.42, 5.66 -0.79, 12 0 M0 12 C-0.49 4.78, 4.86 0.45, 12 0" stroke="#1e1e1e" stroke-width="2" fill="none"></path></g><g stroke-opacity="0.6" fill-opacity="0.6" transform="translate(1205.5838793379507 809.0111111111112) rotate(0 65.23332977294922 16.100000000000023)"><text x="65.23332977294922" y="25.760546874999996" font-family="Helvetica, Segoe UI Emoji" font-size="28px" fill="#1e1e1e" text-anchor="middle" style="white-space: pre;" direction="ltr" dominant-baseline="alphabetic">info queue</text></g><g stroke-opacity="0.6" fill-opacity="0.6" stroke-linecap="round" transform="translate(552.8172091109 562.1111111111112) rotate(0 39.5 39)"><path d="M49.14 0.82 C56.44 2.04, 65.02 8.21, 69.9 14.1 C74.77 20, 77.83 28.5, 78.4 36.18 C78.96 43.86, 77.38 53.75, 73.29 60.18 C69.2 66.61, 61.03 71.97, 53.88 74.75 C46.73 77.52, 37.81 78.58, 30.39 76.83 C22.97 75.08, 14.55 70.18, 9.38 64.26 C4.21 58.33, -0.07 48.81, -0.65 41.28 C-1.24 33.74, 1.52 25.31, 5.86 19.05 C10.21 12.79, 17.67 6.46, 25.44 3.7 C33.21 0.94, 47.33 2.19, 52.48 2.47 C57.62 2.74, 56.49 4.78, 56.31 5.35 M40.39 -0.42 C47.35 -0.87, 54.88 2.78, 61.21 7.51 C67.54 12.25, 75.56 20.82, 78.37 28.02 C81.18 35.21, 80.54 43.49, 78.07 50.69 C75.6 57.89, 70.04 66.81, 63.54 71.2 C57.04 75.59, 46.75 77.23, 39.08 77.04 C31.41 76.86, 23.89 74.61, 17.51 70.12 C11.14 65.62, 3.53 57.26, 0.82 50.08 C-1.89 42.9, -1.49 34.22, 1.24 27.03 C3.97 19.83, 10.78 11.62, 17.21 6.9 C23.64 2.18, 36.08 -0.05, 39.81 -1.31 C43.54 -2.57, 39.55 -1.55, 39.6 -0.66" stroke="none" stroke-width="0" fill="#a5d8ff"></path><path d="M30.13 2.11 C37.17 0.02, 48.02 0.71, 55.32 3.31 C62.62 5.91, 69.91 11.43, 73.95 17.72 C78 24.01, 80.27 33.23, 79.59 41.05 C78.92 48.86, 75.07 58.78, 69.92 64.6 C64.77 70.43, 56.25 74.31, 48.72 76.02 C41.19 77.74, 31.89 77.57, 24.73 74.88 C17.56 72.19, 9.98 66.21, 5.72 59.9 C1.46 53.59, -1.32 44.58, -0.84 37.01 C-0.36 29.44, 3.05 20.4, 8.6 14.47 C14.15 8.54, 28.25 3.49, 32.47 1.43 C36.7 -0.63, 33.96 1.51, 33.96 2.11 M35.98 -0.55 C43.35 -2.12, 51.87 0.59, 58.65 4.45 C65.44 8.32, 73.48 15.67, 76.68 22.64 C79.88 29.61, 79.33 38.78, 77.84 46.25 C76.34 53.72, 73.16 61.98, 67.71 67.45 C62.27 72.91, 53.27 78.07, 45.18 79.04 C37.08 80.02, 25.94 77.2, 19.14 73.31 C12.34 69.42, 7.48 62.77, 4.37 55.71 C1.27 48.65, -0.86 38.62, 0.52 30.94 C1.91 23.27, 7.19 14.7, 12.68 9.65 C18.17 4.6, 29.76 2.04, 33.46 0.64 C37.16 -0.77, 34.41 0.64, 34.89 1.23" stroke="#1e1e1e" stroke-width="2" fill="none"></path></g><g stroke-opacity="0.6" fill-opacity="0.6" transform="translate(574.4948248416779 584.9339466448358) rotate(0 17.891666412353516 16.099999999999994)"><text x="17.891666412353516" y="25.760546874999996" font-family="Helvetica, Segoe UI Emoji" font-size="28px" fill="#1e1e1e" text-anchor="middle" style="white-space: pre;" direction="ltr" dominant-baseline="alphabetic">D1</text></g><g stroke-opacity="0.6" fill-opacity="0.6" stroke-linecap="round" transform="translate(809.4838757775665 44.333333333333485) rotate(0 39.5 39)"><path d="M28.28 1.27 C35.34 -1.14, 46.27 0.15, 53.6 2.85 C60.94 5.55, 68.12 11.39, 72.3 17.46 C76.47 23.53, 78.83 31.65, 78.65 39.29 C78.47 46.92, 75.96 57.21, 71.19 63.26 C66.43 69.32, 57.4 73.6, 50.05 75.59 C42.71 77.58, 34.22 77.65, 27.1 75.21 C19.99 72.78, 11.75 67.23, 7.38 60.96 C3 54.69, 0.75 45.29, 0.84 37.62 C0.94 29.94, 2.04 21.05, 7.93 14.93 C13.82 8.81, 30.08 3.06, 36.16 0.91 C42.23 -1.23, 44.1 1.7, 44.38 2.06 M40.61 -1.05 C47.89 -1.68, 58.23 2.73, 64.27 7.4 C70.3 12.07, 74.73 19.57, 76.81 26.95 C78.88 34.33, 79.39 44.42, 76.71 51.69 C74.04 58.97, 67.27 66.04, 60.73 70.58 C54.2 75.12, 44.86 79.07, 37.5 78.95 C30.15 78.82, 22.71 74.83, 16.61 69.83 C10.52 64.83, 3.45 56.4, 0.93 48.95 C-1.6 41.49, -1.07 32.21, 1.46 25.08 C3.99 17.95, 9.35 10.47, 16.1 6.17 C22.85 1.87, 37.77 0.38, 41.94 -0.71 C46.12 -1.8, 41.33 -1.39, 41.15 -0.37" stroke="none" stroke-width="0" fill="#fab005"></path><path d="M22.41 4.39 C28.73 0.97, 38.95 0.04, 46.75 1.34 C54.55 2.64, 63.91 6.59, 69.2 12.17 C74.5 17.75, 77.74 27.23, 78.53 34.83 C79.32 42.42, 77.89 51.18, 73.96 57.72 C70.03 64.27, 61.98 70.78, 54.97 74.09 C47.96 77.4, 39.45 78.97, 31.88 77.6 C24.32 76.22, 15.02 71.62, 9.61 65.83 C4.19 60.05, -0.02 50.73, -0.6 42.87 C-1.18 35.01, 0.2 25.65, 6.14 18.65 C12.09 11.65, 28.7 3.92, 35.07 0.88 C41.43 -2.17, 44.38 -0.11, 44.35 0.39 M45.97 -0.08 C53.71 0.53, 63.38 6.64, 68.63 11.91 C73.88 17.18, 76.63 23.94, 77.46 31.54 C78.29 39.15, 77 50.6, 73.6 57.55 C70.2 64.49, 63.66 69.66, 57.06 73.22 C50.45 76.78, 41.59 79.77, 33.95 78.91 C26.3 78.06, 16.72 73.76, 11.19 68.07 C5.66 62.39, 1.84 52.35, 0.76 44.81 C-0.32 37.27, 1.29 29.74, 4.71 22.84 C8.12 15.94, 14.45 7.33, 21.27 3.41 C28.09 -0.52, 41.47 -0.19, 45.63 -0.7 C49.79 -1.21, 46.4 -0.46, 46.21 0.35" stroke="#1e1e1e" stroke-width="2" fill="none"></path></g><g stroke-opacity="0.6" fill-opacity="0.6" transform="translate(839.7114916990793 67.15616886705814) rotate(0 9.341666221618652 16.099999999999994)"><text x="9.341666221618652" y="25.760546874999996" font-family="Helvetica, Segoe UI Emoji" font-size="28px" fill="#1e1e1e" text-anchor="middle" style="white-space: pre;" direction="ltr" dominant-baseline="alphabetic">A</text></g><g stroke-opacity="0.6" fill-opacity="0.6" stroke-linecap="round" transform="translate(1063.8172091109 574.1111111111112) rotate(0 39.5 39)"><path d="M48.62 1.41 C56.05 2.36, 64.49 7.29, 69.68 12.78 C74.86 18.26, 79.18 26.6, 79.74 34.3 C80.3 42, 77.04 52.12, 73.02 58.98 C69 65.85, 62.6 72.53, 55.63 75.51 C48.66 78.48, 38.88 78.63, 31.19 76.84 C23.5 75.05, 14.81 70.34, 9.51 64.75 C4.22 59.16, 0.17 50.88, -0.58 43.3 C-1.34 35.72, 0.81 25.81, 4.99 19.28 C9.16 12.74, 16.72 7.09, 24.46 4.09 C32.2 1.09, 46.66 1.32, 51.42 1.29 C56.19 1.27, 53.4 3.1, 53.05 3.93 M43.96 -0.95 C51.72 -0.58, 61.39 4.15, 67.17 9.42 C72.95 14.68, 77.41 23.16, 78.64 30.62 C79.87 38.09, 77.84 46.97, 74.56 54.23 C71.28 61.49, 65.38 70.33, 58.96 74.18 C52.53 78.02, 43.53 78.43, 36.02 77.3 C28.52 76.18, 19.92 72.46, 13.94 67.43 C7.95 62.39, 1.74 54.56, 0.11 47.07 C-1.51 39.59, 0.87 29.41, 4.19 22.52 C7.51 15.62, 13.34 9.57, 20.03 5.71 C26.73 1.85, 40.42 -0.03, 44.35 -0.65 C48.28 -1.27, 43.75 1.36, 43.61 1.98" stroke="none" stroke-width="0" fill="#d0bfff"></path><path d="M43.03 0.59 C50.65 0.99, 60.77 5.38, 66.63 10.41 C72.49 15.43, 76.7 23.4, 78.19 30.73 C79.68 38.06, 78.75 47.24, 75.55 54.38 C72.35 61.53, 65.71 69.55, 59.01 73.57 C52.32 77.6, 43.06 79.41, 35.38 78.54 C27.69 77.66, 18.77 73.63, 12.9 68.33 C7.04 63.03, 1.63 54.28, 0.17 46.72 C-1.29 39.15, 1.05 29.76, 4.16 22.94 C7.27 16.12, 11.73 9.46, 18.81 5.8 C25.89 2.14, 41.28 1.41, 46.64 0.95 C52.01 0.5, 51 2.57, 51.01 3.07 M44.03 0.02 C51.59 0.12, 60.54 4.5, 66.14 9.49 C71.74 14.48, 76.28 22.48, 77.64 29.94 C79 37.39, 77.21 47.11, 74.3 54.22 C71.38 61.34, 66.89 68.6, 60.18 72.6 C53.46 76.6, 41.7 79.11, 34 78.22 C26.29 77.33, 19.63 72.35, 13.96 67.25 C8.28 62.14, 1.68 54.97, -0.04 47.59 C-1.76 40.2, 0.08 30.23, 3.63 22.92 C7.19 15.6, 14.63 7.32, 21.29 3.68 C27.94 0.05, 39.9 1.32, 43.57 1.09 C47.23 0.86, 43.2 1.78, 43.25 2.32" stroke="#1e1e1e" stroke-width="2" fill="none"></path></g><g stroke-opacity="0.6" fill-opacity="0.6" transform="translate(1087.0531572849152 596.9339466448358) rotate(0 16.33333396911621 16.099999999999994)"><text x="16.33333396911621" y="25.760546874999996" font-family="Helvetica, Segoe UI Emoji" font-size="28px" fill="#1e1e1e" text-anchor="middle" style="white-space: pre;" direction="ltr" dominant-baseline="alphabetic">T1</text></g><g stroke-opacity="0.6" fill-opacity="0.6" stroke-linecap="round" transform="translate(1068.8172091109 767.1111111111112) rotate(0 39.5 39)"><path d="M47.64 0.96 C54.75 1.74, 62.19 7.28, 67.42 12.75 C72.66 18.22, 77.96 26.37, 79.04 33.8 C80.12 41.23, 77.6 50.57, 73.91 57.33 C70.22 64.09, 63.92 71, 56.91 74.37 C49.91 77.74, 39.67 79.13, 31.89 77.56 C24.11 75.99, 15.63 70.42, 10.23 64.94 C4.82 59.46, 0.28 52.04, -0.55 44.7 C-1.37 37.36, 1.49 27.58, 5.29 20.89 C9.1 14.2, 14.78 7.66, 22.28 4.55 C29.78 1.44, 45.45 2.41, 50.3 2.23 C55.16 2.06, 51.62 2.9, 51.4 3.51 M34.32 0.84 C41.65 -0.17, 52.6 2.39, 59.42 6.23 C66.24 10.06, 71.92 17.32, 75.24 23.86 C78.55 30.39, 80.85 38.09, 79.3 45.45 C77.75 52.8, 71.63 62.56, 65.94 67.99 C60.25 73.42, 53 77.21, 45.18 78.01 C37.35 78.82, 26.09 76.71, 19 72.83 C11.91 68.96, 5.45 61.79, 2.62 54.76 C-0.2 47.73, 0.45 37.94, 2.03 30.63 C3.6 23.33, 6.39 15.95, 12.06 10.93 C17.73 5.92, 32.35 1.97, 36.07 0.53 C39.78 -0.91, 34.43 1.46, 34.35 2.27" stroke="none" stroke-width="0" fill="#d0bfff"></path><path d="M31.08 1.71 C38.17 -0.03, 49.07 0.85, 56.1 3.96 C63.14 7.08, 69.4 13.79, 73.3 20.41 C77.21 27.02, 80.29 36.26, 79.53 43.65 C78.77 51.04, 74.18 59.19, 68.71 64.74 C63.25 70.29, 54.33 75.35, 46.71 76.94 C39.1 78.53, 29.84 77.5, 23.02 74.28 C16.19 71.06, 9.71 64.4, 5.78 57.64 C1.86 50.87, -1.29 41.15, -0.53 33.68 C0.24 26.22, 4.26 18.38, 10.38 12.85 C16.5 7.33, 30.92 2.51, 36.18 0.55 C41.45 -1.41, 41.85 0.55, 41.95 1.11 M36.96 0.06 C44.2 -1, 54.73 1.6, 61.16 5.67 C67.59 9.74, 72.98 17.2, 75.55 24.46 C78.11 31.71, 78.37 41.64, 76.53 49.2 C74.69 56.76, 70.34 64.91, 64.5 69.8 C58.67 74.69, 49.38 78.46, 41.5 78.53 C33.62 78.61, 23.6 74.79, 17.23 70.24 C10.85 65.69, 5.69 58, 3.24 51.23 C0.79 44.45, 0.77 36.76, 2.54 29.58 C4.32 22.4, 8.2 13.2, 13.88 8.13 C19.56 3.06, 32.63 0.61, 36.62 -0.83 C40.6 -2.27, 37.34 -1.09, 37.79 -0.5" stroke="#1e1e1e" stroke-width="2" fill="none"></path></g><g stroke-opacity="0.6" fill-opacity="0.6" transform="translate(1092.0531572849152 789.9339466448358) rotate(0 16.33333396911621 16.100000000000023)"><text x="16.33333396911621" y="25.760546874999996" font-family="Helvetica, Segoe UI Emoji" font-size="28px" fill="#1e1e1e" text-anchor="middle" style="white-space: pre;" direction="ltr" dominant-baseline="alphabetic">T2</text></g><g stroke-opacity="0.6" fill-opacity="0.6" stroke-linecap="round" transform="translate(552.8172091109 737.1111111111112) rotate(0 39.5 39)"><path d="M46.67 -0.01 C53.95 0.63, 63.04 6.18, 68.41 11.96 C73.79 17.73, 78.08 26.98, 78.91 34.64 C79.74 42.3, 77.12 51.24, 73.39 57.91 C69.66 64.59, 63.41 71.43, 56.54 74.71 C49.66 77.99, 39.92 79.16, 32.14 77.6 C24.36 76.05, 15.21 71.21, 9.83 65.37 C4.46 59.53, 0.62 50.14, -0.12 42.56 C-0.85 34.98, 1.53 26.28, 5.45 19.9 C9.37 13.53, 16.28 7.3, 23.4 4.3 C30.52 1.3, 43.75 2.16, 48.16 1.89 C52.56 1.63, 49.84 2.08, 49.83 2.74 M27.61 3.05 C34.59 0.34, 44.62 -0.5, 51.95 1.54 C59.29 3.57, 67.25 8.96, 71.61 15.26 C75.97 21.57, 78.06 31.51, 78.12 39.38 C78.19 47.25, 76.09 56.56, 72.01 62.48 C67.93 68.41, 60.9 72.72, 53.63 74.92 C46.35 77.12, 35.88 77.92, 28.37 75.7 C20.87 73.47, 13.11 67.58, 8.57 61.59 C4.03 55.59, 1.5 47.38, 1.13 39.71 C0.77 32.03, 2.22 21.8, 6.39 15.52 C10.56 9.24, 22.66 4.35, 26.17 2.01 C29.67 -0.34, 26.95 0.71, 27.41 1.45" stroke="none" stroke-width="0" fill="#a5d8ff"></path><path d="M34.54 -0.09 C41.75 -1.44, 51.22 1.21, 57.81 4.98 C64.4 8.75, 70.79 15.63, 74.09 22.55 C77.4 29.48, 78.94 39.24, 77.65 46.54 C76.36 53.83, 71.87 61.17, 66.35 66.32 C60.83 71.47, 52.13 76.36, 44.5 77.45 C36.87 78.54, 27.27 76.49, 20.57 72.86 C13.86 69.23, 7.62 62.36, 4.29 55.64 C0.95 48.92, -0.61 40.04, 0.53 32.54 C1.68 25.04, 4.73 16.13, 11.16 10.66 C17.59 5.19, 33.58 1.36, 39.13 -0.31 C44.68 -1.98, 44.36 0.01, 44.46 0.62 M35.47 -0.35 C42.59 -1.25, 52.83 1.68, 59.64 5.86 C66.46 10.05, 73.52 17.45, 76.37 24.76 C79.21 32.07, 78.63 42.2, 76.73 49.72 C74.83 57.23, 70.68 65.05, 64.97 69.85 C59.27 74.66, 50.29 78.36, 42.49 78.53 C34.7 78.7, 24.63 75.11, 18.2 70.86 C11.78 66.62, 6.6 59.85, 3.94 53.06 C1.29 46.27, 0.45 37.61, 2.28 30.11 C4.12 22.62, 9.2 13.08, 14.95 8.1 C20.7 3.12, 33.32 1.6, 36.79 0.22 C40.26 -1.16, 35.98 -1.01, 35.77 -0.18" stroke="#1e1e1e" stroke-width="2" fill="none"></path></g><g stroke-opacity="0.6" fill-opacity="0.6" transform="translate(574.4948248416779 759.9339466448358) rotate(0 17.891666412353516 16.100000000000023)"><text x="17.891666412353516" y="25.760546874999996" font-family="Helvetica, Segoe UI Emoji" font-size="28px" fill="#1e1e1e" text-anchor="middle" style="white-space: pre;" direction="ltr" dominant-baseline="alphabetic">D2</text></g><g stroke-linecap="round"><g stroke-opacity="0.6" fill-opacity="0.6" transform="translate(614.8109921289106 566.1072551714238) rotate(0 50.2298075963846 -66.78784389332256)"><path d="M-0.44 -0.66 C16.39 -23.03, 84.23 -112.79, 100.9 -135.19 M1.54 1.62 C18.29 -20.49, 84.24 -111.18, 100.41 -133.76" stroke="#1e1e1e" stroke-width="2" fill="none"></path></g><g stroke-opacity="0.6" fill-opacity="0.6" transform="translate(614.8109921289106 566.1072551714238) rotate(0 50.2298075963846 -66.78784389332256)"><path d="M93.57 -109.71 C94.68 -115.31, 97.46 -124.64, 100.41 -133.76 M93.57 -109.71 C96.12 -116.91, 97.44 -124.27, 100.41 -133.76" stroke="#1e1e1e" stroke-width="2" fill="none"></path></g><g stroke-opacity="0.6" fill-opacity="0.6" transform="translate(614.8109921289106 566.1072551714238) rotate(0 50.2298075963846 -66.78784389332256)"><path d="M79.71 -119.73 C84.83 -122.32, 91.7 -128.7, 100.41 -133.76 M79.71 -119.73 C86.35 -123.87, 91.73 -128.3, 100.41 -133.76" stroke="#1e1e1e" stroke-width="2" fill="none"></path></g></g><mask></mask><g stroke-linecap="round"><g stroke-opacity="0.6" fill-opacity="0.6" transform="translate(624.1622516079876 750.0047316353647) rotate(0 71.48730629635963 -159.63472008019488)"><path d="M0.82 -0.17 C18.5 -24, 82.43 -89.3, 106.16 -142.46 C129.88 -195.61, 136.95 -289.71, 143.18 -319.1 M-0.21 -1.3 C17.27 -25.55, 81.13 -91.58, 104.95 -144.35 C128.76 -197.12, 136.13 -289.01, 142.69 -317.89" stroke="#1e1e1e" stroke-width="2" fill="none"></path></g><g stroke-opacity="0.6" fill-opacity="0.6" transform="translate(624.1622516079876 750.0047316353647) rotate(0 71.48730629635963 -159.63472008019488)"><path d="M147.36 -293.33 C145.54 -301.66, 145.11 -307.48, 142.69 -317.89 M147.36 -293.33 C144.91 -300.06, 145.52 -308.19, 142.69 -317.89" stroke="#1e1e1e" stroke-width="2" fill="none"></path></g><g stroke-opacity="0.6" fill-opacity="0.6" transform="translate(624.1622516079876 750.0047316353647) rotate(0 71.48730629635963 -159.63472008019488)"><path d="M130.48 -296.08 C133.84 -303.68, 138.59 -308.66, 142.69 -317.89 M130.48 -296.08 C132.82 -302.04, 138.2 -309.39, 142.69 -317.89" stroke="#1e1e1e" stroke-width="2" fill="none"></path></g></g><mask></mask><g stroke-opacity="0.7" fill-opacity="0.7" transform="translate(517.1376618517029 665.6111111111111) rotate(0 72.41666412353516 23)"><text x="72.41666412353516" y="18.400390625" font-family="Helvetica, Segoe UI Emoji" font-size="20px" fill="#1e1e1e" text-anchor="middle" style="white-space: pre;" direction="ltr" dominant-baseline="alphabetic">knee/hip/elbow </text><text x="72.41666412353516" y="41.400390625" font-family="Helvetica, Segoe UI Emoji" font-size="20px" fill="#1e1e1e" text-anchor="middle" style="white-space: pre;" direction="ltr" dominant-baseline="alphabetic">[patient]</text></g><g stroke-linecap="round"><g stroke-opacity="0.7" fill-opacity="0.7" transform="translate(1081.8172091109 567.1111111111112) rotate(0 -53.704310632105944 -69.53997479882092)"><path d="M1 -1.1 C-16.87 -24.13, -89.5 -115.35, -107.99 -138.28 M0.07 0.94 C-17.8 -22.43, -90.48 -116.4, -108.41 -140.02" stroke="#1e1e1e" stroke-width="2" fill="none"></path></g><g stroke-opacity="0.7" fill-opacity="0.7" transform="translate(1081.8172091109 567.1111111111112) rotate(0 -53.704310632105944 -69.53997479882092)"><path d="M-87.33 -126.58 C-94.1 -127.88, -96.01 -134.28, -108.41 -140.02 M-87.33 -126.58 C-94.85 -131.79, -101.31 -134.91, -108.41 -140.02" stroke="#1e1e1e" stroke-width="2" fill="none"></path></g><g stroke-opacity="0.7" fill-opacity="0.7" transform="translate(1081.8172091109 567.1111111111112) rotate(0 -53.704310632105944 -69.53997479882092)"><path d="M-100.89 -116.17 C-104.48 -120.03, -103.2 -128.87, -108.41 -140.02 M-100.89 -116.17 C-103.92 -124.73, -105.9 -131.3, -108.41 -140.02" stroke="#1e1e1e" stroke-width="2" fill="none"></path></g></g><mask></mask><g stroke-linecap="round"><g stroke-opacity="0.7" fill-opacity="0.7" transform="translate(1071.3678898017533 775.6874519221667) rotate(0 -85.0858767406728 -172.56432765912655)"><path d="M0.11 -0.96 C-18.76 -26.42, -84.06 -94.12, -112.33 -151.67 C-140.6 -209.22, -159.97 -313.67, -169.52 -346.27 M-1.3 1.15 C-19.85 -23.6, -81.87 -92.52, -110.03 -150.18 C-138.19 -207.84, -160.36 -312.07, -170.28 -344.8" stroke="#1e1e1e" stroke-width="2" fill="none"></path></g><g stroke-opacity="0.7" fill-opacity="0.7" transform="translate(1071.3678898017533 775.6874519221667) rotate(0 -85.0858767406728 -172.56432765912655)"><path d="M-156 -324.28 C-163.07 -333.16, -166.91 -339.41, -170.28 -344.8 M-156 -324.28 C-161.49 -332.02, -165.77 -337.28, -170.28 -344.8" stroke="#1e1e1e" stroke-width="2" fill="none"></path></g><g stroke-opacity="0.7" fill-opacity="0.7" transform="translate(1071.3678898017533 775.6874519221667) rotate(0 -85.0858767406728 -172.56432765912655)"><path d="M-172.53 -319.9 C-173.53 -330.42, -171.24 -338.29, -170.28 -344.8 M-172.53 -319.9 C-172.64 -328.97, -171.54 -335.65, -170.28 -344.8" stroke="#1e1e1e" stroke-width="2" fill="none"></path></g></g><mask></mask><g stroke-opacity="0.7" fill-opacity="0.7" transform="translate(1025.2755342057583 670.1111111111112) rotate(0 79.0438484325689 37.657894629431325)"><text x="79.04384843256891" y="20.084636849177556" font-family="Helvetica, Segoe UI Emoji" font-size="21.830663553293515px" fill="#1e1e1e" text-anchor="middle" style="white-space: pre;" direction="ltr" dominant-baseline="alphabetic">[doc] </text><text x="79.04384843256891" y="45.18989993546509" font-family="Helvetica, Segoe UI Emoji" font-size="21.830663553293515px" fill="#1e1e1e" text-anchor="middle" style="white-space: pre;" direction="ltr" dominant-baseline="alphabetic">knee/hip/elbow</text><text x="79.04384843256891" y="70.29516302175264" font-family="Helvetica, Segoe UI Emoji" font-size="21.830663553293515px" fill="#1e1e1e" text-anchor="middle" style="white-space: pre;" direction="ltr" dominant-baseline="alphabetic">done</text></g><g mask="url(#mask-MEJyFGYxLFdmVFwGvUj_v)" stroke-linecap="round"><g stroke-opacity="0.7" fill-opacity="0.7" transform="translate(1032.8172091109 352.1111111111112) rotate(0 390.4363895039088 330.12267225846875)"><path d="M-0.44 -0.54 C113.92 2.65, 566.15 -87.15, 686.23 18.57 C806.3 124.28, 804.87 528.08, 720 633.75 C635.13 739.42, 265.76 673.9, 177.02 652.58 C88.29 631.25, 186.07 530.17, 187.6 505.81 M1.53 1.79 C116.27 5.2, 568.83 -85.65, 688.53 19.88 C808.24 125.4, 804.88 529.34, 719.76 634.93 C634.64 740.53, 266.69 674.93, 177.81 653.46 C88.92 631.98, 184.88 530.74, 186.45 506.1" stroke="#1e1e1e" stroke-width="2" fill="none"></path></g><g stroke-opacity="0.7" fill-opacity="0.7" transform="translate(1032.8172091109 352.1111111111112) rotate(0 390.4363895039088 330.12267225846875)"><path d="M183.57 530.93 C183.66 522.14, 184.7 517.59, 186.45 506.1 M183.57 530.93 C184.66 523.85, 184.3 517.42, 186.45 506.1" stroke="#1e1e1e" stroke-width="2" fill="none"></path></g><g stroke-opacity="0.7" fill-opacity="0.7" transform="translate(1032.8172091109 352.1111111111112) rotate(0 390.4363895039088 330.12267225846875)"><path d="M168.28 523.27 C172.96 516.86, 178.63 514.62, 186.45 506.1 M168.28 523.27 C173.7 518.39, 177.61 514.09, 186.45 506.1" stroke="#1e1e1e" stroke-width="2" fill="none"></path></g></g><mask id="mask-MEJyFGYxLFdmVFwGvUj_v"><rect x="0" y="0" fill="#fff" width="1851.8172091109" height="1105.1111111111113"></rect><rect x="1735.8005426985465" y="974.6111111111113" fill="#000" width="32.03333282470703" height="23" opacity="1"></rect></mask><g stroke-opacity="0.7" fill-opacity="0.7" transform="translate(1735.8005426985465 974.6111111111113) rotate(0 -312.5469440837377 -292.3773277415313)"><text x="16.016666412353516" y="18.400390625" font-family="Helvetica, Segoe UI Emoji" font-size="20px" fill="#1e1e1e" text-anchor="middle" style="white-space: pre;" direction="ltr" dominant-baseline="alphabetic">info</text></g><g mask="url(#mask-xkvwG86ylcTRExfNGMnkw)" stroke-linecap="round"><g stroke-opacity="0.7" fill-opacity="0.7" transform="translate(1033.2616535553443 368.8888888888889) rotate(0 362.44848951778897 293.19840823508406)"><path d="M0.37 -1.05 C104.99 10.36, 508.69 -25.39, 627.3 67.97 C745.91 161.33, 732.99 483.11, 712.02 559.11 C691.05 635.11, 536.49 529.56, 501.47 523.97 M-0.89 1.01 C103.56 12.59, 507.33 -24.13, 626.1 69.03 C744.87 162.19, 732.53 483.99, 711.73 559.96 C690.94 635.93, 535.96 531, 501.33 524.82" stroke="#1e1e1e" stroke-width="2" fill="none"></path></g><g stroke-opacity="0.7" fill-opacity="0.7" transform="translate(1033.2616535553443 368.8888888888889) rotate(0 362.44848951778897 293.19840823508406)"><path d="M526.28 526.34 C517.88 525.21, 511.44 527.12, 501.33 524.82 M526.28 526.34 C520.41 526.82, 515.26 525.84, 501.33 524.82" stroke="#1e1e1e" stroke-width="2" fill="none"></path></g><g stroke-opacity="0.7" fill-opacity="0.7" transform="translate(1033.2616535553443 368.8888888888889) rotate(0 362.44848951778897 293.19840823508406)"><path d="M519.47 542.02 C512.94 536.69, 508.33 534.41, 501.33 524.82 M519.47 542.02 C515.23 538.99, 511.62 534.47, 501.33 524.82" stroke="#1e1e1e" stroke-width="2" fill="none"></path></g></g><mask id="mask-xkvwG86ylcTRExfNGMnkw"><rect x="0" y="0" fill="#fff" width="1844.3727646664552" height="1028.888888888889"></rect><rect x="1706.087272850075" y="668.5632639426915" fill="#000" width="94.98332977294922" height="23" opacity="1"></rect></mask><g stroke-opacity="0.7" fill-opacity="0.7" transform="translate(1706.0872728500754 668.5632639426915) rotate(0 -310.3771297769416 -6.475966818718518)"><text x="47.49166488647461" y="18.400390625" font-family="Helvetica, Segoe UI Emoji" font-size="20px" fill="#1e1e1e" text-anchor="middle" style="white-space: pre;" direction="ltr" dominant-baseline="alphabetic">tech.elbow</text></g><g mask="url(#mask-IDBzQTZcbJFKskfrjPXOf)" stroke-linecap="round"><g stroke-opacity="0.7" fill-opacity="0.7" transform="translate(1027.7060979997887 384.44444444444446) rotate(0 328.1677268849239 200.83098870766514)"><path d="M-1.08 -1.05 C97.2 11.4, 481.98 11.6, 589.76 75.16 C697.54 138.72, 643.76 330.34, 645.61 380.31 C647.46 430.28, 608.48 375.81, 600.87 374.97 M0.56 1.02 C98.64 13.59, 481.2 13.03, 588.68 76.49 C696.17 139.95, 643.4 331.91, 645.45 381.79 C647.5 431.67, 608.31 376.81, 600.99 375.77" stroke="#1e1e1e" stroke-width="2" fill="none"></path></g><g stroke-opacity="0.7" fill-opacity="0.7" transform="translate(1027.7060979997887 384.44444444444446) rotate(0 328.1677268849239 200.83098870766514)"><path d="M621.43 383.3 C613.32 380.38, 608.06 380.39, 600.99 375.77 M621.43 383.3 C613.81 380.55, 607.24 377.84, 600.99 375.77" stroke="#1e1e1e" stroke-width="2" fill="none"></path></g><g stroke-opacity="0.7" fill-opacity="0.7" transform="translate(1027.7060979997887 384.44444444444446) rotate(0 328.1677268849239 200.83098870766514)"><path d="M611.8 394.68 C606.63 388.32, 604.36 384.79, 600.99 375.77 M611.8 394.68 C607.35 388.26, 603.91 381.85, 600.99 375.77" stroke="#1e1e1e" stroke-width="2" fill="none"></path></g></g><mask id="mask-IDBzQTZcbJFKskfrjPXOf"><rect x="0" y="0" fill="#fff" width="1772.150542444233" height="864.4444444444446"></rect><rect x="1641.6454080350086" y="594.4093829391545" fill="#000" width="86.53333282470703" height="23" opacity="1"></rect></mask><g stroke-opacity="0.7" fill-opacity="0.7" transform="translate(1641.6454080350086 594.4093829391545) rotate(0 -285.771583150296 -9.133949787044884)"><text x="43.266666412353516" y="18.400390625" font-family="Helvetica, Segoe UI Emoji" font-size="20px" fill="#1e1e1e" text-anchor="middle" style="white-space: pre;" direction="ltr" dominant-baseline="alphabetic">tech.knee</text></g><g mask="url(#mask-FD3gzcIl0DSIYC5ttDXE-)" stroke-linecap="round"><g stroke-opacity="0.7" fill-opacity="0.7" transform="translate(1028.8172091109 403.33333333333337) rotate(0 277.6260507241891 85.82252254427516)"><path d="M0.18 0.23 C86.6 14.5, 433.43 57.3, 519.21 85.83 C605 114.37, 515.77 157.09, 514.89 171.43 M-1.18 -0.69 C85.04 13.69, 432.51 58.1, 518.43 86.94 C604.36 115.77, 515.11 158.02, 514.36 172.33" stroke="#1e1e1e" stroke-width="2" fill="none"></path></g><g stroke-opacity="0.7" fill-opacity="0.7" transform="translate(1028.8172091109 403.33333333333337) rotate(0 277.6260507241891 85.82252254427516)"><path d="M523.77 149.17 C520.83 158.03, 515.68 166.54, 514.36 172.33 M523.77 149.17 C522.28 154.4, 519.32 160.35, 514.36 172.33" stroke="#1e1e1e" stroke-width="2" fill="none"></path></g><g stroke-opacity="0.7" fill-opacity="0.7" transform="translate(1028.8172091109 403.33333333333337) rotate(0 277.6260507241891 85.82252254427516)"><path d="M536.45 160.64 C528.95 165.4, 519.25 169.8, 514.36 172.33 M536.45 160.64 C532.05 163.15, 526.11 166.42, 514.36 172.33" stroke="#1e1e1e" stroke-width="2" fill="none"></path></g></g><mask id="mask-FD3gzcIl0DSIYC5ttDXE-"><rect x="0" y="0" fill="#fff" width="1647.7060979997887" height="675.5555555555557"></rect><rect x="1512.8310979997887" y="478.5000000000001" fill="#000" width="69.75" height="23" opacity="1"></rect></mask><g stroke-opacity="0.7" fill-opacity="0.7" transform="translate(1512.8310979997887 478.5000000000001) rotate(0 -206.3878381646996 10.655855877608474)"><text x="34.875" y="18.400390625" font-family="Helvetica, Segoe UI Emoji" font-size="20px" fill="#1e1e1e" text-anchor="middle" style="white-space: pre;" direction="ltr" dominant-baseline="alphabetic">tech.hip</text></g><g mask="url(#mask-vnSzzFKFYFcDPdpJuOJdC)" stroke-linecap="round"><g stroke-opacity="0.7" fill-opacity="0.7" transform="translate(1017.7060979997887 412.2222222222223) rotate(0 124.65415553602782 89.64374617210072)"><path d="M1.15 0.75 C42.72 30.36, 207.91 148.38, 249.01 178.08 M0.3 0.1 C41.75 29.81, 206.5 149.16, 248.12 179.19" stroke="#1e1e1e" stroke-width="2" fill="none"></path></g><g stroke-opacity="0.7" fill-opacity="0.7" transform="translate(1017.7060979997887 412.2222222222223) rotate(0 124.65415553602782 89.64374617210072)"><path d="M224.07 172.35 C231.83 174.16, 235.7 173.88, 248.12 179.19 M224.07 172.35 C231.6 173.69, 238.77 175.48, 248.12 179.19" stroke="#1e1e1e" stroke-width="2" fill="none"></path></g><g stroke-opacity="0.7" fill-opacity="0.7" transform="translate(1017.7060979997887 412.2222222222223) rotate(0 124.65415553602782 89.64374617210072)"><path d="M234.09 158.49 C239.2 164.13, 240.37 167.58, 248.12 179.19 M234.09 158.49 C238.5 164.11, 242.65 170.09, 248.12 179.19" stroke="#1e1e1e" stroke-width="2" fill="none"></path></g></g><mask id="mask-vnSzzFKFYFcDPdpJuOJdC"><rect x="0" y="0" fill="#fff" width="1366.5949868886773" height="691.1111111111112"></rect><rect x="1126.1338760318795" y="490.16666666666674" fill="#000" width="32.03333282470703" height="23" opacity="1"></rect></mask><g stroke-opacity="0.7" fill-opacity="0.7" transform="translate(1126.1338760318795 490.16666666666674) rotate(0 16.226377503936988 11.699301727656291)"><text x="16.016666412353516" y="18.400390625" font-family="Helvetica, Segoe UI Emoji" font-size="20px" fill="#1e1e1e" text-anchor="middle" style="white-space: pre;" direction="ltr" dominant-baseline="alphabetic">info</text></g><g stroke-linecap="round"><g stroke-opacity="0.7" fill-opacity="0.7" transform="translate(1173.2616535553443 614.4444444444446) rotate(0 -13.090236203065388 1.223782018202911)"><path d="M-0.1 0.21 C-4.29 0.69, -21.32 2.3, -25.62 2.6 M-0.82 -0.16 C-5.04 0.2, -22.09 1.39, -26.08 1.84" stroke="#1e1e1e" stroke-width="2" fill="none"></path></g><g stroke-opacity="0.7" fill-opacity="0.7" transform="translate(1173.2616535553443 614.4444444444446) rotate(0 -13.090236203065388 1.223782018202911)"><path d="M-14.46 -3.58 C-16.68 -2.52, -18.93 -1.72, -26.08 1.84 M-14.46 -3.58 C-17.7 -2.41, -20.78 -0.73, -26.08 1.84" stroke="#1e1e1e" stroke-width="2" fill="none"></path></g><g stroke-opacity="0.7" fill-opacity="0.7" transform="translate(1173.2616535553443 614.4444444444446) rotate(0 -13.090236203065388 1.223782018202911)"><path d="M-13.69 5.16 C-16.05 4.37, -18.46 3.33, -26.08 1.84 M-13.69 5.16 C-17.17 4.01, -20.45 3.36, -26.08 1.84" stroke="#1e1e1e" stroke-width="2" fill="none"></path></g></g><mask></mask><g stroke-linecap="round"><g stroke-opacity="0.7" fill-opacity="0.7" transform="translate(1178.8172091109 818.888888888889) rotate(0 -11.219188731129975 -2.719590149021542)"><path d="M-0.53 -0.3 C-4.3 -1.18, -18.97 -4.45, -22.63 -5.33 M0.2 0.74 C-3.39 -0.3, -17.75 -5.22, -21.61 -6.18" stroke="#1e1e1e" stroke-width="2" fill="none"></path></g><g stroke-opacity="0.7" fill-opacity="0.7" transform="translate(1178.8172091109 818.888888888889) rotate(0 -11.219188731129975 -2.719590149021542)"><path d="M-10.18 -6.84 C-13.81 -7.13, -16.58 -6.8, -21.61 -6.18 M-10.18 -6.84 C-13.68 -6.95, -17.09 -6.53, -21.61 -6.18" stroke="#1e1e1e" stroke-width="2" fill="none"></path></g><g stroke-opacity="0.7" fill-opacity="0.7" transform="translate(1178.8172091109 818.888888888889) rotate(0 -11.219188731129975 -2.719590149021542)"><path d="M-12.43 0.67 C-15.4 -1.79, -17.52 -3.64, -21.61 -6.18 M-12.43 0.67 C-15.28 -1.63, -18.03 -3.41, -21.61 -6.18" stroke="#1e1e1e" stroke-width="2" fill="none"></path></g></g><mask></mask><g stroke-linecap="round"><g stroke-opacity="0.7" fill-opacity="0.7" transform="translate(1416.5949868886773 623.3333333333334) rotate(0 -135.24290112353447 -36.14932967706429)"><path d="M-0.48 0.69 C-19.62 -11.34, -70.43 -62.98, -115.54 -71.36 C-160.66 -79.75, -245.37 -53.24, -271.16 -49.59 M1.47 0.01 C-17.77 -11.91, -70.92 -61.85, -116.49 -69.96 C-162.06 -78.07, -246.44 -52.19, -271.95 -48.64" stroke="#1e1e1e" stroke-width="2" fill="none"></path></g><g stroke-opacity="0.7" fill-opacity="0.7" transform="translate(1416.5949868886773 623.3333333333334) rotate(0 -135.24290112353447 -36.14932967706429)"><path d="M-250.75 -61.89 C-254.64 -58.74, -261.37 -55.63, -271.95 -48.64 M-250.75 -61.89 C-254.97 -59.42, -260.43 -55.15, -271.95 -48.64" stroke="#1e1e1e" stroke-width="2" fill="none"></path></g><g stroke-opacity="0.7" fill-opacity="0.7" transform="translate(1416.5949868886773 623.3333333333334) rotate(0 -135.24290112353447 -36.14932967706429)"><path d="M-247.19 -45.16 C-252.07 -46.09, -259.66 -47.03, -271.95 -48.64 M-247.19 -45.16 C-252.39 -46.75, -258.71 -46.52, -271.95 -48.64" stroke="#1e1e1e" stroke-width="2" fill="none"></path></g></g><mask></mask><g stroke-linecap="round"><g stroke-opacity="0.7" fill-opacity="0.7" transform="translate(1433.2616535553443 886.6666666666667) rotate(0 -161.46428419457948 6.630585006751176)"><path d="M-0.9 -0.59 C-47.86 5.3, -228.11 39.28, -281.87 35.39 C-335.64 31.5, -316.42 -13.99, -323.49 -23.92 M0.83 1.72 C-45.73 7.79, -225.46 40.94, -279.56 36.83 C-333.66 32.73, -316.36 -12.85, -323.76 -22.92" stroke="#1e1e1e" stroke-width="2" fill="none"></path></g><g stroke-opacity="0.7" fill-opacity="0.7" transform="translate(1433.2616535553443 886.6666666666667) rotate(0 -161.46428419457948 6.630585006751176)"><path d="M-311.69 -1.02 C-316.17 -8.72, -318.97 -12.21, -323.76 -22.92 M-311.69 -1.02 C-314.36 -7.11, -317.51 -11.81, -323.76 -22.92" stroke="#1e1e1e" stroke-width="2" fill="none"></path></g><g stroke-opacity="0.7" fill-opacity="0.7" transform="translate(1433.2616535553443 886.6666666666667) rotate(0 -161.46428419457948 6.630585006751176)"><path d="M-328.58 1.61 C-328.18 -6.72, -326.08 -10.97, -323.76 -22.92 M-328.58 1.61 C-327.03 -5.01, -325.93 -10.37, -323.76 -22.92" stroke="#1e1e1e" stroke-width="2" fill="none"></path></g></g><mask></mask><g stroke-linecap="round"><g stroke-opacity="0.7" fill-opacity="0.7" transform="translate(1421.0394313331221 710.0000000000001) rotate(0 -141.98539085403706 -29.842258793920706)"><path d="M-1.17 0.35 C-48.5 -9.51, -237.19 -48.39, -284.39 -58.25 M0.42 -0.51 C-46.52 -10.8, -235.16 -50.55, -282.23 -60.04" stroke="#1e1e1e" stroke-width="2" fill="none"></path></g><g stroke-opacity="0.7" fill-opacity="0.7" transform="translate(1421.0394313331221 710.0000000000001) rotate(0 -141.98539085403706 -29.842258793920706)"><path d="M-257.49 -63.65 C-263.48 -64.68, -269.59 -63.68, -282.23 -60.04 M-257.49 -63.65 C-265.84 -61.96, -273.29 -60.92, -282.23 -60.04" stroke="#1e1e1e" stroke-width="2" fill="none"></path></g><g stroke-opacity="0.7" fill-opacity="0.7" transform="translate(1421.0394313331221 710.0000000000001) rotate(0 -141.98539085403706 -29.842258793920706)"><path d="M-260.95 -46.9 C-266.14 -52.37, -271.33 -55.84, -282.23 -60.04 M-260.95 -46.9 C-268.25 -50.37, -274.63 -54.52, -282.23 -60.04" stroke="#1e1e1e" stroke-width="2" fill="none"></path></g></g><mask></mask><g stroke-linecap="round"><g stroke-opacity="0.7" fill-opacity="0.7" transform="translate(1419.9283202220113 735.5555555555557) rotate(0 -132.0153791371663 23.915892079755025)"><path d="M-0.44 0.81 C-44.81 8.94, -221.6 39.88, -265.56 47.64 M1.53 0.19 C-42.54 8.09, -219.05 38.49, -263.43 46.03" stroke="#1e1e1e" stroke-width="2" fill="none"></path></g><g stroke-opacity="0.7" fill-opacity="0.7" transform="translate(1419.9283202220113 735.5555555555557) rotate(0 -132.0153791371663 23.915892079755025)"><path d="M-241.72 33.64 C-248.15 36.07, -255.54 42.76, -263.43 46.03 M-241.72 33.64 C-250.27 38.38, -257.85 42.08, -263.43 46.03" stroke="#1e1e1e" stroke-width="2" fill="none"></path></g><g stroke-opacity="0.7" fill-opacity="0.7" transform="translate(1419.9283202220113 735.5555555555557) rotate(0 -132.0153791371663 23.915892079755025)"><path d="M-238.83 50.49 C-246.13 46.97, -254.54 47.71, -263.43 46.03 M-238.83 50.49 C-248.36 49.16, -256.99 46.79, -263.43 46.03" stroke="#1e1e1e" stroke-width="2" fill="none"></path></g></g><mask></mask><g mask="url(#mask-NVmvbLA50gNpojb_hpkXV)" stroke-linecap="round"><g stroke-opacity="0.7" fill-opacity="0.7" transform="translate(641.0394313331221 352.2222222222223) rotate(0 -308.3104135540338 282.7939662762184)"><path d="M0.06 -0.15 C-93.3 -1.24, -466.62 -104.68, -560.12 -6.74 C-653.62 91.19, -613.18 501.36, -560.96 587.47 C-508.74 673.58, -299.09 522.85, -246.8 509.9 M-1.38 -1.28 C-94.8 -2.15, -467.17 -103.56, -560.55 -5.25 C-653.93 93.07, -613.97 503.11, -561.65 588.63 C-509.33 674.15, -299.35 520.87, -246.63 507.87" stroke="#1e1e1e" stroke-width="2" fill="none"></path></g><g stroke-opacity="0.7" fill-opacity="0.7" transform="translate(641.0394313331221 352.2222222222223) rotate(0 -308.3104135540338 282.7939662762184)"><path d="M-264.06 525.79 C-259.06 522.07, -253.71 515.3, -246.63 507.87 M-264.06 525.79 C-259.72 521.47, -254.13 515.88, -246.63 507.87" stroke="#1e1e1e" stroke-width="2" fill="none"></path></g><g stroke-opacity="0.7" fill-opacity="0.7" transform="translate(641.0394313331221 352.2222222222223) rotate(0 -308.3104135540338 282.7939662762184)"><path d="M-271.5 510.4 C-264.3 511.28, -256.72 509.12, -246.63 507.87 M-271.5 510.4 C-265.13 510.23, -257.5 508.87, -246.63 507.87" stroke="#1e1e1e" stroke-width="2" fill="none"></path></g></g><mask id="mask-NVmvbLA50gNpojb_hpkXV"><rect x="0" y="0" fill="#fff" width="1302.1505424442332" height="1046.666666666667"></rect><rect x="10" y="639.5520050849349" fill="#000" width="32.03333282470703" height="23" opacity="1"></rect></mask><g stroke-opacity="0.7" fill-opacity="0.7" transform="translate(10 639.5520050849349) rotate(0 322.72901777908834 -4.535816586494207)"><text x="16.016666412353516" y="18.400390625" font-family="Helvetica, Segoe UI Emoji" font-size="20px" fill="#1e1e1e" text-anchor="middle" style="white-space: pre;" direction="ltr" dominant-baseline="alphabetic">info</text></g><g mask="url(#mask-0QbfvZpnkPXHiWhozMdln)" stroke-linecap="round"><g stroke-opacity="0.7" fill-opacity="0.7" transform="translate(635.4838757775665 373.33333333333337) rotate(0 -274.4810969057025 236.65518560202236)"><path d="M-0.85 -0.58 C-82.68 0.22, -404.91 -76.84, -491.34 4.4 C-577.77 85.64, -548.07 419.74, -519.41 486.84 C-490.75 553.94, -352.54 420.3, -319.38 407.01 M0.91 1.72 C-81.07 2.26, -405.52 -78.15, -492.41 2.84 C-579.3 83.83, -549.38 420.09, -520.45 487.67 C-491.52 555.24, -352.46 421.63, -318.81 408.29" stroke="#1e1e1e" stroke-width="2" fill="none"></path></g><g stroke-opacity="0.7" fill-opacity="0.7" transform="translate(635.4838757775665 373.33333333333337) rotate(0 -274.4810969057025 236.65518560202236)"><path d="M-333.48 428.53 C-330.4 422.78, -323.68 416.82, -318.81 408.29 M-333.48 428.53 C-330.71 424.33, -327.95 418.73, -318.81 408.29" stroke="#1e1e1e" stroke-width="2" fill="none"></path></g><g stroke-opacity="0.7" fill-opacity="0.7" transform="translate(635.4838757775665 373.33333333333337) rotate(0 -274.4810969057025 236.65518560202236)"><path d="M-343.06 414.37 C-337.45 412.51, -328.13 410.38, -318.81 408.29 M-343.06 414.37 C-338.1 413.28, -333.21 410.82, -318.81 408.29" stroke="#1e1e1e" stroke-width="2" fill="none"></path></g></g><mask id="mask-0QbfvZpnkPXHiWhozMdln"><rect x="0" y="0" fill="#fff" width="1254.3727646664552" height="961.1111111111112"></rect><rect x="56.99076120646305" y="611.7550045469857" fill="#000" width="59.91666793823242" height="23" opacity="1"></rect></mask><g stroke-opacity="0.7" fill-opacity="0.7" transform="translate(56.990761206462935 611.7550045469857) rotate(0 304.01201766540106 -1.766485611629946)"><text x="29.95833396911621" y="18.400390625" font-family="Helvetica, Segoe UI Emoji" font-size="20px" fill="#1e1e1e" text-anchor="middle" style="white-space: pre;" direction="ltr" dominant-baseline="alphabetic">doc.d2</text></g><g mask="url(#mask-ob5Z4LX3YyTCm0cieNrHK)" stroke-linecap="round"><g stroke-opacity="0.7" fill-opacity="0.7" transform="translate(637.7060979997887 387.7777777777778) rotate(0 -239.78237359109193 138.5862170015925)"><path d="M-0.97 -0.17 C-76.6 3.88, -385.47 -19.96, -453.99 24.7 C-522.5 69.35, -433.02 229.74, -412.07 267.74 C-391.12 305.75, -342.47 254.97, -328.29 252.72 M0.72 -1.31 C-75.01 2.33, -385.78 -21.84, -454.69 22.71 C-523.61 67.25, -433.82 227.5, -412.76 265.97 C-391.7 304.43, -342.43 255.31, -328.32 253.49" stroke="#1e1e1e" stroke-width="2" fill="none"></path></g><g stroke-opacity="0.7" fill-opacity="0.7" transform="translate(637.7060979997887 387.7777777777778) rotate(0 -239.78237359109193 138.5862170015925)"><path d="M-345.13 271.99 C-340.72 267.66, -335.25 261.92, -328.32 253.49 M-345.13 271.99 C-337.86 265.6, -332.58 258.37, -328.32 253.49" stroke="#1e1e1e" stroke-width="2" fill="none"></path></g><g stroke-opacity="0.7" fill-opacity="0.7" transform="translate(637.7060979997887 387.7777777777778) rotate(0 -239.78237359109193 138.5862170015925)"><path d="M-353.09 256.86 C-346.38 256.87, -338.67 255.41, -328.32 253.49 M-353.09 256.86 C-342.78 256.4, -334.4 255.08, -328.32 253.49" stroke="#1e1e1e" stroke-width="2" fill="none"></path></g></g><mask id="mask-ob5Z4LX3YyTCm0cieNrHK"><rect x="0" y="0" fill="#fff" width="1192.150542444233" height="754.4444444444446"></rect><rect x="155.22952802961163" y="525.9407096643173" fill="#000" width="32.03333282470703" height="23" opacity="1"></rect></mask><g stroke-opacity="0.7" fill-opacity="0.7" transform="translate(155.22952802961163 525.9407096643174) rotate(0 242.6941963790851 0.42328511505300526)"><text x="16.016666412353516" y="18.400390625" font-family="Helvetica, Segoe UI Emoji" font-size="20px" fill="#1e1e1e" text-anchor="middle" style="white-space: pre;" direction="ltr" dominant-baseline="alphabetic">info</text></g><g mask="url(#mask-m_u88UGpOSXhFiuWd6ST4)" stroke-linecap="round"><g stroke-opacity="0.7" fill-opacity="0.7" transform="translate(646.5949868886778 406.66666666666663) rotate(0 -126.49436573662831 62.426133362839266)"><path d="M-0.4 0.74 C-42.74 21.59, -212.22 104.33, -254.57 124.78 M1.58 0.08 C-40.33 20.58, -210.07 102.14, -252.34 122.83" stroke="#1e1e1e" stroke-width="2" fill="none"></path></g><g stroke-opacity="0.7" fill-opacity="0.7" transform="translate(646.5949868886778 406.66666666666663) rotate(0 -126.49436573662831 62.426133362839266)"><path d="M-234.93 104.89 C-238.13 107.81, -243.18 112.44, -252.34 122.83 M-234.93 104.89 C-237.64 107.77, -241.84 113.01, -252.34 122.83" stroke="#1e1e1e" stroke-width="2" fill="none"></path></g><g stroke-opacity="0.7" fill-opacity="0.7" transform="translate(646.5949868886778 406.66666666666663) rotate(0 -126.49436573662831 62.426133362839266)"><path d="M-227.47 120.28 C-232.5 119.31, -239.43 120.07, -252.34 122.83 M-227.47 120.28 C-231.84 119.84, -237.63 121.79, -252.34 122.83" stroke="#1e1e1e" stroke-width="2" fill="none"></path></g></g><mask id="mask-m_u88UGpOSXhFiuWd6ST4"><rect x="0" y="0" fill="#fff" width="1000.2496719950118" height="631.1111111111112"></rect><rect x="489.8093103663946" y="457.3888888888889" fill="#000" width="59.91666793823242" height="23" opacity="1"></rect></mask><g stroke-opacity="0.7" fill-opacity="0.7" transform="translate(489.8093103663946 457.3888888888889) rotate(0 30.2913107856549 11.70391114061701)"><text x="29.95833396911621" y="18.400390625" font-family="Helvetica, Segoe UI Emoji" font-size="20px" fill="#1e1e1e" text-anchor="middle" style="white-space: pre;" direction="ltr" dominant-baseline="alphabetic">doc.d1</text></g><g stroke-opacity="0.7" fill-opacity="0.7" transform="translate(833.9116538096575 10) rotate(0 16.016666412353516 11.5)"><text x="16.016666412353516" y="18.400390625" font-family="Helvetica, Segoe UI Emoji" font-size="20px" fill="#1e1e1e" text-anchor="middle" style="white-space: pre;" direction="ltr" dominant-baseline="alphabetic">info</text></g><g stroke-linecap="round"><g stroke-opacity="0.7" fill-opacity="0.7" transform="translate(893.2616535553443 94.44444444444451) rotate(0 43.49601854561752 111.56898198283795)"><path d="M0.59 0.97 C14.13 12.48, 66.4 33.27, 80.32 69.99 C94.24 106.71, 83.7 196.06, 84.12 221.29 M-0.56 0.44 C12.94 12.07, 65.48 34.48, 79.54 71.52 C93.59 108.57, 83.22 197.52, 83.77 222.7" stroke="#1e1e1e" stroke-width="2" fill="none"></path></g><g stroke-opacity="0.7" fill-opacity="0.7" transform="translate(893.2616535553443 94.44444444444451) rotate(0 43.49601854561752 111.56898198283795)"><path d="M76.19 198.88 C79.68 204.67, 79.72 210.74, 83.77 222.7 M76.19 198.88 C78.77 206.81, 80.15 213.32, 83.77 222.7" stroke="#1e1e1e" stroke-width="2" fill="none"></path></g><g stroke-opacity="0.7" fill-opacity="0.7" transform="translate(893.2616535553443 94.44444444444451) rotate(0 43.49601854561752 111.56898198283795)"><path d="M93.27 199.58 C92.96 205.29, 89.22 211.21, 83.77 222.7 M93.27 199.58 C90.47 207.33, 86.48 213.62, 83.77 222.7" stroke="#1e1e1e" stroke-width="2" fill="none"></path></g></g><mask></mask><g mask="url(#mask-YmLPfUhjk9mNBXIUwknYa)" stroke-linecap="round"><g stroke-opacity="0.7" fill-opacity="0.7" transform="translate(778.8172091109 322.2222222222223) rotate(0 9.701195338880666 -39.20535200540391)"><path d="M0.7 0.78 C3.93 -12.43, 16.67 -65.84, 19.8 -79.19 M-0.4 0.14 C2.62 -12.89, 15.61 -64.74, 18.74 -77.81" stroke="#1e1e1e" stroke-width="2" fill="none"></path></g><g stroke-opacity="0.7" fill-opacity="0.7" transform="translate(778.8172091109 322.2222222222223) rotate(0 9.701195338880666 -39.20535200540391)"><path d="M21.44 -52.95 C21.83 -61.59, 19.13 -70.46, 18.74 -77.81 M21.44 -52.95 C20.59 -59.72, 19.53 -65.56, 18.74 -77.81" stroke="#1e1e1e" stroke-width="2" fill="none"></path></g><g stroke-opacity="0.7" fill-opacity="0.7" transform="translate(778.8172091109 322.2222222222223) rotate(0 9.701195338880666 -39.20535200540391)"><path d="M4.84 -57.03 C10.78 -64.4, 13.64 -71.91, 18.74 -77.81 M4.84 -57.03 C8.36 -62.81, 11.68 -67.57, 18.74 -77.81" stroke="#1e1e1e" stroke-width="2" fill="none"></path></g></g><mask id="mask-YmLPfUhjk9mNBXIUwknYa"><rect x="0" y="0" fill="#fff" width="898.8172091109" height="501.1111111111112"></rect><rect x="766.6172083479605" y="271.2777777777778" fill="#000" width="44.400001525878906" height="23" opacity="1"></rect></mask><g stroke-opacity="0.7" fill-opacity="0.7" transform="translate(766.6172083479605 271.2777777777778) rotate(0 21.90119610182012 11.739092439040547)"><text x="22.200000762939453" y="18.400390625" font-family="Helvetica, Segoe UI Emoji" font-size="20px" fill="#1e1e1e" text-anchor="middle" style="white-space: pre;" direction="ltr" dominant-baseline="alphabetic">doc.*</text></g><g mask="url(#mask-5QYB25514o1I1GulwIqN3)" stroke-linecap="round"><g stroke-opacity="0.7" fill-opacity="0.7" transform="translate(913.2616535553443 323.33333333333337) rotate(0 -10.210171482199826 -39.07606680364244)"><path d="M-0.12 0.46 C-3.42 -12.6, -16.44 -65.73, -19.58 -78.61 M-1.64 -0.34 C-5.09 -13.25, -17.38 -64.45, -20.3 -77.51" stroke="#1e1e1e" stroke-width="2" fill="none"></path></g><g stroke-opacity="0.7" fill-opacity="0.7" transform="translate(913.2616535553443 323.33333333333337) rotate(0 -10.210171482199826 -39.07606680364244)"><path d="M-6.63 -56.58 C-10.22 -62.63, -16.78 -68.32, -20.3 -77.51 M-6.63 -56.58 C-12.26 -64.59, -16.85 -72.61, -20.3 -77.51" stroke="#1e1e1e" stroke-width="2" fill="none"></path></g><g stroke-opacity="0.7" fill-opacity="0.7" transform="translate(913.2616535553443 323.33333333333337) rotate(0 -10.210171482199826 -39.07606680364244)"><path d="M-23.29 -52.69 C-21.51 -59.97, -22.71 -66.92, -20.3 -77.51 M-23.29 -52.69 C-22.65 -62.12, -20.97 -71.6, -20.3 -77.51" stroke="#1e1e1e" stroke-width="2" fill="none"></path></g></g><mask id="mask-5QYB25514o1I1GulwIqN3"><rect x="0" y="0" fill="#fff" width="1033.2616535553443" height="501.11111111111114"></rect><rect x="878.361653936814" y="272.94444444444446" fill="#000" width="49.79999923706055" height="23" opacity="1"></rect></mask><g stroke-opacity="0.7" fill-opacity="0.7" transform="translate(878.361653936814 272.94444444444446) rotate(0 24.689828136330448 11.312822085246445)"><text x="24.899999618530273" y="18.400390625" font-family="Helvetica, Segoe UI Emoji" font-size="20px" fill="#1e1e1e" text-anchor="middle" style="white-space: pre;" direction="ltr" dominant-baseline="alphabetic">tech.*</text></g><g stroke-linecap="round"><g stroke-opacity="0.7" fill-opacity="0.7" transform="translate(844.3727646664554 154.4444444444445) rotate(0 -0.3495226138044245 -12.48552984313315)"><path d="M0.24 -0.04 C0.11 -4.16, -0.55 -20.86, -0.71 -24.93 M-0.3 -0.53 C-0.47 -4.58, -0.83 -20.59, -0.94 -24.48" stroke="#1e1e1e" stroke-width="2" fill="none"></path></g><g stroke-opacity="0.7" fill-opacity="0.7" transform="translate(844.3727646664554 154.4444444444445) rotate(0 -0.3495226138044245 -12.48552984313315)"><path d="M3.53 -13.09 C2.12 -16.18, 0.23 -19.76, -0.94 -24.48 M3.53 -13.09 C2.01 -16.62, 0.85 -19.48, -0.94 -24.48" stroke="#1e1e1e" stroke-width="2" fill="none"></path></g><g stroke-opacity="0.7" fill-opacity="0.7" transform="translate(844.3727646664554 154.4444444444445) rotate(0 -0.3495226138044245 -12.48552984313315)"><path d="M-4.84 -12.89 C-3.65 -16.05, -2.93 -19.7, -0.94 -24.48 M-4.84 -12.89 C-3.92 -16.5, -2.65 -19.42, -0.94 -24.48" stroke="#1e1e1e" stroke-width="2" fill="none"></path></g></g><mask></mask><g stroke-linecap="round"><g stroke-opacity="0.7" fill-opacity="0.7" transform="translate(491.03943133312214 568.8888888888889) rotate(0 27.62521360199696 5.965561131905332)"><path d="M0.81 0.91 C10.21 2.63, 46.16 8.58, 55.47 10.41 M-0.22 0.35 C9.1 2.2, 45.02 9.97, 54.47 11.58" stroke="#1e1e1e" stroke-width="2" fill="none"></path></g><g stroke-opacity="0.7" fill-opacity="0.7" transform="translate(491.03943133312214 568.8888888888889) rotate(0 27.62521360199696 5.965561131905332)"><path d="M29.77 15.45 C36.8 14.27, 39.62 15.42, 54.47 11.58 M29.77 15.45 C39.29 14.77, 47.18 11.46, 54.47 11.58" stroke="#1e1e1e" stroke-width="2" fill="none"></path></g><g stroke-opacity="0.7" fill-opacity="0.7" transform="translate(491.03943133312214 568.8888888888889) rotate(0 27.62521360199696 5.965561131905332)"><path d="M33.06 -1.33 C39.38 1.26, 41.46 6.15, 54.47 11.58 M33.06 -1.33 C41.44 4.21, 48.13 7.08, 54.47 11.58" stroke="#1e1e1e" stroke-width="2" fill="none"></path></g></g><mask></mask><g stroke-linecap="round"><g stroke-opacity="0.7" fill-opacity="0.7" transform="translate(486.5949868886778 642.2222222222223) rotate(0 28.141065548898382 -10.0915930224117)"><path d="M-0.31 0.16 C9.09 -2.9, 47.47 -15.47, 56.59 -18.84 M1.73 -0.8 C11.05 -4.13, 47.03 -17.36, 56.18 -20.35" stroke="#1e1e1e" stroke-width="2" fill="none"></path></g><g stroke-opacity="0.7" fill-opacity="0.7" transform="translate(486.5949868886778 642.2222222222223) rotate(0 28.141065548898382 -10.0915930224117)"><path d="M36.83 -4.52 C43.29 -7.76, 51.09 -16.45, 56.18 -20.35 M36.83 -4.52 C42.22 -8.97, 47.27 -13.53, 56.18 -20.35" stroke="#1e1e1e" stroke-width="2" fill="none"></path></g><g stroke-opacity="0.7" fill-opacity="0.7" transform="translate(486.5949868886778 642.2222222222223) rotate(0 28.141065548898382 -10.0915930224117)"><path d="M31.19 -20.66 C39.38 -18.78, 48.97 -22.35, 56.18 -20.35 M31.19 -20.66 C38.41 -20.27, 45.15 -20.01, 56.18 -20.35" stroke="#1e1e1e" stroke-width="2" fill="none"></path></g></g><mask></mask><g stroke-linecap="round"><g stroke-opacity="0.7" fill-opacity="0.7" transform="translate(492.1505424442332 754.4444444444445) rotate(0 24.63430757815013 4.693015491966605)"><path d="M-0.14 0.69 C8.24 2.08, 42.68 6.97, 50.95 8.2 M-1.68 0.01 C6.58 1.56, 42.14 7.88, 50.49 9.37" stroke="#1e1e1e" stroke-width="2" fill="none"></path></g><g stroke-opacity="0.7" fill-opacity="0.7" transform="translate(492.1505424442332 754.4444444444445) rotate(0 24.63430757815013 4.693015491966605)"><path d="M25.87 13.67 C35.71 13.76, 42.09 9.79, 50.49 9.37 M25.87 13.67 C31.64 12.15, 37.84 11.34, 50.49 9.37" stroke="#1e1e1e" stroke-width="2" fill="none"></path></g><g stroke-opacity="0.7" fill-opacity="0.7" transform="translate(492.1505424442332 754.4444444444445) rotate(0 24.63430757815013 4.693015491966605)"><path d="M28.87 -3.17 C37.64 2.86, 42.96 4.83, 50.49 9.37 M28.87 -3.17 C33.96 -0.78, 39.46 2.33, 50.49 9.37" stroke="#1e1e1e" stroke-width="2" fill="none"></path></g></g><mask></mask><g stroke-linecap="round"><g stroke-opacity="0.7" fill-opacity="0.7" transform="translate(492.1505424442332 820) rotate(0 27.632652335728835 -12.75236937676766)"><path d="M-0.04 0.4 C9.35 -3.5, 47.52 -19.97, 56.78 -24.01 M-1.52 -0.44 C7.69 -4.66, 46.01 -21.67, 55.9 -25.9" stroke="#1e1e1e" stroke-width="2" fill="none"></path></g><g stroke-opacity="0.7" fill-opacity="0.7" transform="translate(492.1505424442332 820) rotate(0 27.632652335728835 -12.75236937676766)"><path d="M37.8 -8.66 C44.63 -14.25, 50.78 -22.12, 55.9 -25.9 M37.8 -8.66 C43.32 -15.19, 49.61 -20.23, 55.9 -25.9" stroke="#1e1e1e" stroke-width="2" fill="none"></path></g><g stroke-opacity="0.7" fill-opacity="0.7" transform="translate(492.1505424442332 820) rotate(0 27.632652335728835 -12.75236937676766)"><path d="M30.95 -24.33 C40 -24.65, 48.46 -27.26, 55.9 -25.9 M30.95 -24.33 C39.02 -25.28, 47.74 -24.78, 55.9 -25.9" stroke="#1e1e1e" stroke-width="2" fill="none"></path></g></g><mask></mask></svg>